<svg width="18" height="22" viewBox="0 0 18 22" fill="none" xmlns="http://www.w3.org/2000/svg">
<path d="M7.63294 18.0399L4.22452 14.2397L5.61669 12.6875L7.63294 14.9355L11.6654 10.4395L13.0576 11.9917L7.63294 18.0399ZM1.92024 21.9472C1.39217 21.9472 0.940116 21.7375 0.564069 21.3183C0.188023 20.899 0 20.395 0 19.8062V4.81941C0 4.23065 0.188023 3.72663 0.564069 3.30735C0.940116 2.88808 1.39217 2.67844 1.92024 2.67844H2.88035V0.537476H4.80059V2.67844H12.4815V0.537476H14.4018V2.67844H15.3619C15.89 2.67844 16.342 2.88808 16.7181 3.30735C17.0941 3.72663 17.2821 4.23065 17.2821 4.81941V19.8062C17.2821 20.395 17.0941 20.899 16.7181 21.3183C16.342 21.7375 15.89 21.9472 15.3619 21.9472H1.92024ZM1.92024 19.8062H15.3619V9.10135H1.92024V19.8062ZM1.92024 6.96038H15.3619V4.81941H1.92024V6.96038Z" fill="white"/>
</svg>
