<svg width="40" height="26" viewBox="0 0 40 26" fill="none" xmlns="http://www.w3.org/2000/svg">
<path fill-rule="evenodd" clip-rule="evenodd" d="M12.1333 25.1298C18.816 25.1298 24.2665 19.7074 24.2665 13.0594C24.2665 6.4115 18.816 0.989309 12.1333 0.989309C5.45059 0.989309 0 6.4115 0 13.0594C0 19.7074 5.45059 25.1298 12.1333 25.1298Z" fill="#E4BA84"/>
<path fill-rule="evenodd" clip-rule="evenodd" d="M0.599365 9.25563C1.12568 7.67645 1.97019 6.24155 3.05757 5.0266L4.92674 6.09991C6.34417 6.91437 3.889 11.145 2.47144 10.3307L0.599365 9.25563ZM3.05757 21.0926C1.97019 19.8777 1.12556 18.4431 0.599365 16.8638L2.47144 15.7885C3.889 14.9745 6.34429 19.205 4.92674 20.019L3.05757 21.0926ZM14.5886 24.8982C13.7957 25.0602 12.9744 25.1452 12.1333 25.1452C11.2922 25.1452 10.471 25.0602 9.678 24.8982V22.7482C9.678 21.1197 14.5886 21.1197 14.5886 22.7482V24.8982ZM23.6672 16.8638C23.141 18.4428 22.2965 19.8777 21.2089 21.0926L19.34 20.019C17.9224 19.205 20.3776 14.9742 21.7951 15.7885L23.6672 16.8638ZM21.2089 5.0266C22.2965 6.24167 23.1413 7.6762 23.6672 9.25563L21.7951 10.3307C20.3776 11.145 17.9224 6.91437 19.34 6.09991L21.2089 5.0266ZM12.1333 0.973896C12.9744 0.973896 13.7957 1.05905 14.5886 1.22106V3.37116C14.5886 4.99937 9.678 4.99937 9.678 3.37116V1.22106C10.4709 1.05905 11.2922 0.973896 12.1333 0.973896Z" fill="#D1D1D1"/>
<path fill-rule="evenodd" clip-rule="evenodd" d="M21.3526 5.19004L19.4363 6.2907C18.709 6.70877 19.3835 8.2193 19.6779 8.72639C19.9721 9.23323 20.95 10.57 21.6772 10.1522L23.5966 9.04979C23.0917 7.6214 22.3245 6.31599 21.3526 5.19004ZM23.5966 17.0694L21.6772 15.967C20.9499 15.5491 19.9721 16.8861 19.6779 17.393C19.3838 17.8998 18.709 19.4106 19.4363 19.8282L21.3526 20.9289C22.3245 19.8032 23.0915 18.4978 23.5966 17.0694ZM14.3743 24.94V22.7359C14.3743 21.9002 12.7218 21.7262 12.1333 21.7262C11.5448 21.7262 9.89215 21.9002 9.89215 22.7359V24.94C10.6186 25.0747 11.3677 25.1452 12.1333 25.1452C12.8989 25.1452 13.6479 25.0747 14.3743 24.94ZM2.91382 20.9289L4.83033 19.8282C5.55763 19.4106 4.883 17.8998 4.58878 17.393C4.29457 16.8861 3.31652 15.5491 2.58922 15.967L0.669922 17.0694C1.17493 18.4978 1.94219 19.8032 2.91382 20.9289ZM0.670043 9.04979L2.58922 10.1522C3.31664 10.57 4.29457 9.23323 4.58878 8.72639C4.88288 8.21954 5.55763 6.70877 4.83033 6.2907L2.91382 5.19004C1.94195 6.31587 1.17493 7.6214 0.670043 9.04979ZM12.1333 0.973896C12.8989 0.973896 13.6479 1.04436 14.3743 1.17938V3.38345C14.3743 4.219 12.7218 4.39316 12.1333 4.39316C11.5448 4.39316 9.89215 4.219 9.89215 3.38345V1.17938C10.6186 1.04436 11.3677 0.973896 12.1333 0.973896Z" fill="#E6E6E6"/>
<path fill-rule="evenodd" clip-rule="evenodd" d="M12.1334 19.6395C15.7765 19.6395 18.7477 16.6836 18.7477 13.0597C18.7477 9.43558 15.7765 6.47968 12.1334 6.47968C8.49049 6.47968 5.51917 9.43558 5.51917 13.0597C5.51917 16.6836 8.49049 19.6395 12.1334 19.6395Z" fill="#D1D1D1"/>
<path fill-rule="evenodd" clip-rule="evenodd" d="M12.1334 19.41C15.6494 19.41 18.5168 16.5574 18.5168 13.0594C18.5168 9.5617 15.6494 6.70901 12.1334 6.70901C8.61732 6.70901 5.74976 9.5617 5.74976 13.0594C5.74976 16.5574 8.61732 19.41 12.1334 19.41Z" fill="#E6E6E6"/>
<path fill-rule="evenodd" clip-rule="evenodd" d="M27.0772 25.2094C33.7602 25.2094 39.2106 19.7869 39.2106 13.1389C39.2106 6.49107 33.7602 1.06888 27.0772 1.06888C20.3946 1.06888 14.9442 6.49107 14.9442 13.1389C14.9442 19.7869 20.3946 25.2094 27.0772 25.2094Z" fill="#191928"/>
<path fill-rule="evenodd" clip-rule="evenodd" d="M15.5433 9.3352C16.0697 7.75601 16.914 6.32112 18.0015 5.10616L19.8707 6.17947C21.2883 6.99394 18.833 11.2245 17.4153 10.4103L15.5433 9.3352ZM18.0015 21.1722C16.9142 19.9572 16.0694 18.5227 15.5433 16.9434L17.4153 15.868C18.833 15.0541 21.2883 19.2845 19.8707 20.0985L18.0015 21.1722ZM29.5326 24.9777C28.7395 25.1397 27.9185 25.2248 27.0771 25.2248C26.2361 25.2248 25.4149 25.1397 24.622 24.9777V22.8277C24.622 21.1993 29.5326 21.1993 29.5326 22.8277V24.9777ZM38.6111 16.9434C38.0849 18.5223 37.2404 19.9572 36.1529 21.1722L34.2839 20.0985C32.8664 19.2845 35.3217 15.0538 36.7392 15.868L38.6111 16.9434ZM36.1529 5.10616C37.2404 6.32124 38.0851 7.75577 38.6111 9.3352L36.7392 10.4103C35.3217 11.2245 32.8664 6.99394 34.2839 6.17947L36.1529 5.10616ZM27.0771 1.05346C27.9185 1.05346 28.7395 1.13862 29.5326 1.30062V3.45073C29.5326 5.07894 24.622 5.07894 24.622 3.45073V1.30062C25.4149 1.13862 26.2361 1.05346 27.0771 1.05346Z" fill="#D1D1D1"/>
<path fill-rule="evenodd" clip-rule="evenodd" d="M36.2967 5.26961L34.3804 6.37026C33.6531 6.78834 34.3279 8.29887 34.622 8.80595C34.9162 9.3128 35.894 10.6495 36.6214 10.2318L38.5406 9.12935C38.0357 7.70097 37.2687 6.39556 36.2967 5.26961ZM38.5406 17.149L36.6214 16.0465C35.894 15.6287 34.9162 16.9657 34.622 17.4725C34.3279 17.9794 33.6531 19.4901 34.3804 19.9077L36.2967 21.0085C37.2687 19.8828 38.0357 18.5774 38.5406 17.149ZM29.3182 25.0195V22.8155C29.3182 21.9798 27.6659 21.8057 27.0772 21.8057C26.4889 21.8057 24.8365 21.9798 24.8365 22.8155V25.0195C25.5627 25.1543 26.3117 25.2248 27.0772 25.2248C27.843 25.2248 28.592 25.1543 29.3182 25.0195ZM17.858 21.0085L19.7744 19.9077C20.5017 19.4901 19.827 17.9794 19.5328 17.4725C19.2384 16.9657 18.2607 15.6287 17.5334 16.0465L15.6141 17.149C16.1191 18.5774 16.8862 19.8828 17.858 21.0085ZM15.6141 9.12935L17.5334 10.2318C18.2607 10.6495 19.2384 9.3128 19.5328 8.80595C19.827 8.29911 20.5017 6.78834 19.7744 6.37026L17.858 5.26961C16.8862 6.39544 16.1191 7.70097 15.6141 9.12935ZM27.0772 1.05346C27.843 1.05346 28.592 1.12392 29.3182 1.25895V3.46302C29.3182 4.29856 27.6659 4.47273 27.0772 4.47273C26.4889 4.47273 24.8365 4.29856 24.8365 3.46302V1.25895C25.5627 1.12392 26.3117 1.05346 27.0772 1.05346Z" fill="#E6E6E6"/>
<path fill-rule="evenodd" clip-rule="evenodd" d="M27.0771 19.7191C30.7202 19.7191 33.6914 16.7632 33.6914 13.1393C33.6914 9.51514 30.7202 6.55924 27.0771 6.55924C23.4343 6.55924 20.4631 9.51514 20.4631 13.1393C20.4631 16.7632 23.4343 19.7191 27.0771 19.7191Z" fill="#D1D1D1"/>
<path fill-rule="evenodd" clip-rule="evenodd" d="M27.0772 19.4895C30.5933 19.4895 33.4611 16.637 33.4611 13.1389C33.4611 9.64126 30.5933 6.78858 27.0772 6.78858C23.5613 6.78858 20.694 9.64126 20.694 13.1389C20.694 16.637 23.5613 19.4895 27.0772 19.4895Z" fill="#E6E6E6"/>
</svg>
