<svg width="34" height="34" viewBox="0 0 34 34" fill="none" xmlns="http://www.w3.org/2000/svg">
<path d="M2.83331 31.1667L9.91665 11.3333L22.6666 24.0833L2.83331 31.1667ZM7.50831 26.4917L17.4958 22.95L11.05 16.5042L7.50831 26.4917ZM20.6125 17.7792L19.125 16.2917L27.0583 8.35833C27.8139 7.60278 28.7229 7.225 29.7854 7.225C30.8479 7.225 31.7569 7.60278 32.5125 8.35833L33.3625 9.20833L31.875 10.6958L31.025 9.84583C30.6944 9.51528 30.2812 9.35 29.7854 9.35C29.2896 9.35 28.8764 9.51528 28.5458 9.84583L20.6125 17.7792ZM14.9458 12.1125L13.4583 10.625L14.3083 9.775C14.6389 9.44444 14.8041 9.04306 14.8041 8.57083C14.8041 8.09861 14.6389 7.69722 14.3083 7.36667L13.3875 6.44583L14.875 4.95833L15.7958 5.87917C16.5514 6.63472 16.9291 7.53194 16.9291 8.57083C16.9291 9.60972 16.5514 10.5069 15.7958 11.2625L14.9458 12.1125ZM17.7791 14.9458L16.2916 13.4583L21.3916 8.35833C21.7222 8.02778 21.8875 7.61458 21.8875 7.11875C21.8875 6.62292 21.7222 6.20972 21.3916 5.87917L19.125 3.6125L20.6125 2.125L22.8791 4.39167C23.6347 5.14722 24.0125 6.05625 24.0125 7.11875C24.0125 8.18125 23.6347 9.09028 22.8791 9.84583L17.7791 14.9458ZM23.4458 20.6125L21.9583 19.125L24.225 16.8583C24.9805 16.1028 25.8896 15.725 26.9521 15.725C28.0146 15.725 28.9236 16.1028 29.6791 16.8583L31.9458 19.125L30.4583 20.6125L28.1916 18.3458C27.8611 18.0153 27.4479 17.85 26.9521 17.85C26.4562 17.85 26.043 18.0153 25.7125 18.3458L23.4458 20.6125Z" fill="white"/>
</svg>
