<svg width="34" height="34" viewBox="0 0 34 34" fill="none" xmlns="http://www.w3.org/2000/svg">
<path d="M7.08333 31.1667C6.30417 31.1667 5.63715 30.8893 5.08229 30.3344C4.52743 29.7796 4.25 29.1125 4.25 28.3334V8.50004C4.25 7.72087 4.52743 7.05386 5.08229 6.499C5.63715 5.94414 6.30417 5.66671 7.08333 5.66671H8.5V2.83337H11.3333V5.66671H22.6667V2.83337H25.5V5.66671H26.9167C27.6958 5.66671 28.3628 5.94414 28.9177 6.499C29.4726 7.05386 29.75 7.72087 29.75 8.50004V28.3334C29.75 29.1125 29.4726 29.7796 28.9177 30.3344C28.3628 30.8893 27.6958 31.1667 26.9167 31.1667H7.08333ZM7.08333 28.3334H26.9167V14.1667H7.08333V28.3334ZM7.08333 11.3334H26.9167V8.50004H7.08333V11.3334Z" fill="white"/>
</svg>
