<svg width="30" height="22" viewBox="0 0 30 22" fill="none" xmlns="http://www.w3.org/2000/svg">
<path d="M10.75 19H26.3333V15.4334H10.75V19ZM3.66665 6.56671H7.91665V3.00004H3.66665V6.56671ZM3.66665 12.8H7.91665V9.23337H3.66665V12.8ZM3.66665 19H7.91665V15.4334H3.66665V19ZM10.75 12.8H26.3333V9.23337H10.75V12.8ZM10.75 6.56671H26.3333V3.00004H10.75V6.56671ZM3.66665 21.6667C2.88748 21.6667 2.22047 21.4056 1.6656 20.8834C1.11074 20.3612 0.833313 19.7334 0.833313 19V3.00004C0.833313 2.26671 1.11074 1.63893 1.6656 1.11671C2.22047 0.594485 2.88748 0.333374 3.66665 0.333374H26.3333C27.1125 0.333374 27.7795 0.594485 28.3344 1.11671C28.8892 1.63893 29.1666 2.26671 29.1666 3.00004V19C29.1666 19.7334 28.8892 20.3612 28.3344 20.8834C27.7795 21.4056 27.1125 21.6667 26.3333 21.6667H3.66665Z" fill="white"/>
</svg>
