<svg width="31" height="33" viewBox="0 0 31 33" fill="none" xmlns="http://www.w3.org/2000/svg">
<path d="M3.08333 32.375V15.4167H0V6.16667H8.01667C7.88819 5.93542 7.80469 5.69132 7.76615 5.43438C7.7276 5.17743 7.70833 4.90764 7.70833 4.625C7.70833 3.34028 8.15799 2.24826 9.05729 1.34896C9.9566 0.449653 11.0486 0 12.3333 0C12.9243 0 13.4767 0.109201 13.9906 0.327604C14.5045 0.546007 14.9799 0.847917 15.4167 1.23333C15.8535 0.822222 16.3288 0.513889 16.8427 0.308333C17.3566 0.102778 17.909 0 18.5 0C19.7847 0 20.8767 0.449653 21.776 1.34896C22.6753 2.24826 23.125 3.34028 23.125 4.625C23.125 4.90764 23.0993 5.17101 23.0479 5.4151C22.9965 5.6592 22.9194 5.90972 22.8167 6.16667H30.8333V15.4167H27.75V32.375H3.08333ZM18.5 3.08333C18.0632 3.08333 17.697 3.23108 17.4016 3.52656C17.1061 3.82205 16.9583 4.18819 16.9583 4.625C16.9583 5.06181 17.1061 5.42795 17.4016 5.72344C17.697 6.01892 18.0632 6.16667 18.5 6.16667C18.9368 6.16667 19.303 6.01892 19.5984 5.72344C19.8939 5.42795 20.0417 5.06181 20.0417 4.625C20.0417 4.18819 19.8939 3.82205 19.5984 3.52656C19.303 3.23108 18.9368 3.08333 18.5 3.08333ZM10.7917 4.625C10.7917 5.06181 10.9394 5.42795 11.2349 5.72344C11.5304 6.01892 11.8965 6.16667 12.3333 6.16667C12.7701 6.16667 13.1363 6.01892 13.4318 5.72344C13.7273 5.42795 13.875 5.06181 13.875 4.625C13.875 4.18819 13.7273 3.82205 13.4318 3.52656C13.1363 3.23108 12.7701 3.08333 12.3333 3.08333C11.8965 3.08333 11.5304 3.23108 11.2349 3.52656C10.9394 3.82205 10.7917 4.18819 10.7917 4.625ZM3.08333 9.25V12.3333H13.875V9.25H3.08333ZM13.875 29.2917V15.4167H6.16667V29.2917H13.875ZM16.9583 29.2917H24.6667V15.4167H16.9583V29.2917ZM27.75 12.3333V9.25H16.9583V12.3333H27.75Z" fill="white"/>
</svg>
