<svg width="44" height="44" viewBox="0 0 44 44" fill="none" xmlns="http://www.w3.org/2000/svg">
<path d="M38.1308 36.9789C29.5585 45.5582 15.6009 45.5582 7.02143 36.9789C-1.55788 28.3993 -1.55788 14.4418 7.02143 5.86592C9.29173 3.59941 12.0594 1.86983 15.2426 0.741987C16.2453 0.391018 17.3554 0.645392 18.1 1.39374C18.8521 2.14569 19.1063 3.25566 18.7519 4.25116C16.5962 10.3312 18.0644 16.9125 22.5761 21.4244C27.0808 25.9323 33.6621 27.397 39.7492 25.2486C40.7447 24.8942 41.8583 25.1486 42.6066 25.9005C43.3587 26.6451 43.6093 27.7588 43.2547 28.758C42.1339 31.9409 40.4009 34.7086 38.1308 36.9789ZM10.9101 9.7546C4.47544 16.1893 4.47544 26.6592 10.9101 33.0902C17.7851 39.9688 29.4941 39.3492 35.4882 31.6864C29.3078 32.0731 23.2206 29.8423 18.6874 25.3125C14.1542 20.783 11.9271 14.6957 12.3136 8.51538C11.8197 8.90244 11.3504 9.31425 10.9101 9.7546Z" fill="white"/>
</svg>
