<svg width="51" height="39" viewBox="0 0 51 39" fill="none" xmlns="http://www.w3.org/2000/svg">
<path fill-rule="evenodd" clip-rule="evenodd" d="M40.9584 11.9298C41.057 10.2441 40.9378 8.32878 42.4821 7.21872C43.6688 6.36336 45.2013 6.49439 47.046 7.32767C48.6934 8.06378 49.8712 9.20181 49.9905 11.2806C50.0906 13.1297 48.1355 14.9788 45.2396 16.8279C45.6032 17.433 46.0376 17.9983 46.3276 18.6417C46.7796 19.6384 46.8517 20.5821 46.0331 21.3962C44.4991 22.9318 41.5885 24.4422 38.3776 25.8571C38.1141 27.2586 37.7033 28.6543 36.2753 29.9542C35.0666 31.0599 34.5704 31.241 33.0849 30.7154C32.4431 31.8637 31.785 33.4611 31.2712 34.8126C30.4114 37.071 29.0408 38.82 26.376 38.8376C22.8427 38.8627 21.3189 37.4405 19.8497 34.4136C19.3064 33.2947 18.8191 32.1081 18.3627 30.8965C17.6266 31.1983 17.076 31.5987 16.493 31.4854C14.744 31.1394 13.5486 28.8354 12.9243 26.0381C10.529 25.2049 8.28242 24.3083 6.83228 23.3189C4.05567 21.4139 5.33061 18.4312 6.98539 16.1728C5.60739 15.5441 4.53267 14.6873 4.12192 13.4889C3.26803 11.0023 5.64567 8.18892 7.7112 7.18045C9.35125 6.37514 11.6435 6.82859 12.6063 8.4495C13.1717 9.40056 13.0053 11.1672 12.9759 12.264C14.1286 12.1345 15.1989 11.9239 16.3502 11.7944C16.6196 10.3708 17.0186 9.1547 17.5707 8.18745C19.224 5.2857 23.1151 4.60258 24.761 7.9622C25.1497 8.75425 25.3911 9.76861 25.4662 11.0303H27.4743C27.6775 9.88345 27.9484 8.80872 28.3871 7.91656C29.9683 4.70417 33.6017 4.89703 35.2653 7.89153C35.7953 8.84553 36.1192 10.0248 36.3106 11.3513L40.9584 11.9298Z" fill="#543864"/>
<path fill-rule="evenodd" clip-rule="evenodd" d="M20.5445 19.6855C23.9689 19.6075 27.464 19.553 30.8663 19.5913C29.479 17.9142 27.9404 16.3682 26.27 14.9729C24.6344 16.0918 22.5629 17.9291 20.5445 19.684V19.6855ZM36.2472 12.7499C36.0249 14.3457 35.5892 15.6663 34.8059 16.5394C33.319 18.1971 31.0827 17.9571 29.6149 16.4908C28.6334 15.5093 27.9768 14.0336 27.645 12.0638L25.4367 12.0947C25.4573 13.2166 25.1457 14.3389 24.5019 15.4617L26.404 14.0277C28.3252 15.7727 30.1463 17.6247 31.8585 19.5751C35.0165 20.4275 37.9477 23.6281 38.1243 24.9678C43.8454 22.1103 46.6632 20.4378 43.7968 16.4893C45.5635 15.4234 48.2282 13.3976 48.4844 11.5971C48.7317 9.85989 46.1509 8.53342 44.7552 8.31405C43.6201 8.13592 42.9885 8.17567 42.5469 9.28425C42.2039 10.1587 41.9212 11.5323 41.6724 13.1856C40.2605 12.9928 38.8531 12.822 37.4353 12.6085C37.1482 12.5644 36.8553 12.6277 36.5652 12.638L36.2487 12.7499H36.2472ZM35.3404 11.9917C35.3145 10.922 35.0371 9.87343 34.5306 8.93092C33.2321 6.53561 30.613 6.13369 29.1732 8.52311C28.7639 9.20181 28.5269 10.038 28.4283 10.9994C28.6447 10.9847 28.8699 10.9758 29.0893 10.9802C31.2755 11.0126 33.3587 11.3115 35.3404 11.9917ZM17.4455 12.4584C17.5131 11.3432 17.8103 10.2541 18.3185 9.25922C19.6097 6.85067 22.3863 6.11897 23.8982 8.61144C24.3474 9.37171 24.6004 10.2318 24.6344 11.1142C24.125 11.098 23.5861 11.0892 23.0149 11.1142C21.21 11.1967 19.1238 11.7856 17.4455 12.4539V12.4584ZM21.7959 17.6229C20.362 19.1702 19.168 20.1919 17.4455 21.1754C14.3995 22.917 13.2143 24.0212 13.0112 25.2608C10.5084 24.1743 8.44727 23.1261 7.58307 22.1971C5.98718 20.482 7.00449 18.2839 8.76085 15.9461C7.36813 15.3925 6.48185 14.6932 5.89443 13.9085C5.2069 12.9898 5.21132 12.0653 5.74721 11.0215C6.40235 9.74947 7.95554 8.43036 9.42777 8.30081C11.8555 8.08733 11.9305 11.8047 11.9129 13.3785L16.4547 12.7984C17.4352 17.2284 19.3991 18.1721 21.8003 17.6229H21.7959Z" fill="white"/>
<path fill-rule="evenodd" clip-rule="evenodd" d="M24.6461 11.7311C24.7008 12.6781 24.5107 13.6232 24.094 14.4753C23.3579 15.9475 21.6545 17.5552 19.8687 16.8765C18.554 16.3759 17.6221 14.7786 17.5132 13.0841C19.4447 12.4952 21.3616 11.9416 23.0458 11.7767C23.5793 11.7294 24.1152 11.7142 24.6505 11.7311H24.6461Z" fill="white"/>
<path fill-rule="evenodd" clip-rule="evenodd" d="M35.3286 12.6718C35.3286 14.0381 35.0342 15.1525 34.3437 15.9107C32.8052 17.6023 30.5557 16.903 29.4162 15.1378C28.8788 14.3045 28.5328 13.193 28.4386 11.7753C30.767 11.7357 33.0886 12.0393 35.3286 12.6763V12.6718Z" fill="white"/>
<path fill-rule="evenodd" clip-rule="evenodd" d="M19.4448 30.2752C21.5236 29.7422 23.6009 29.1946 25.6797 28.538C27.7408 29.2152 29.7518 29.7378 31.7526 30.2296C30.2376 35.4633 28.8155 37.4758 25.7724 37.3448C21.6502 37.1667 20.549 33.1917 19.4418 30.2781L19.4448 30.2752ZM18.7087 21.1165C19.4256 22.0499 23.1842 24.9693 25.5059 25.9366C25.5236 26.5873 25.4809 27.2881 25.5059 27.9402C22.6557 28.6263 19.8658 29.3492 17.288 30.019C16.3634 30.1221 15.3741 29.2181 14.741 28.058C14.186 27.0275 13.8371 25.9366 14.2051 24.9826C14.6939 23.7209 17.1599 22.0528 18.7087 21.1165ZM26.3083 25.9851C26.3067 26.6357 26.2723 27.2858 26.2052 27.9329C29.9668 28.8236 32.9642 30.1412 34.5586 29.6996C36.05 29.2873 37.0614 26.6197 36.9628 25.2137C36.9039 24.3304 36.4269 23.6311 35.6584 22.8699C34.6273 21.865 33.4548 21.0163 32.178 20.3509C30.4114 22.6491 28.4253 24.3731 26.3083 25.9866V25.9851ZM43.7909 12.4201C43.5842 12.9272 43.484 13.4714 43.4965 14.0189C44.0351 13.8582 44.5481 13.6217 45.0202 13.3167C47.1653 11.8592 44.7744 9.87755 43.7968 12.4216L43.7909 12.4201ZM10.0181 12.7484C10.2248 13.256 10.325 13.8007 10.3126 14.3487C9.77708 14.1864 9.2671 13.9495 8.79768 13.645C6.65265 12.1875 9.04501 10.2059 10.0211 12.7484H10.0181Z" fill="white"/>
<path fill-rule="evenodd" clip-rule="evenodd" d="M15.3417 13.7583C17.9755 12.9545 20.73 12.0034 23.0488 11.7767C24.6682 11.6192 26.2376 11.8812 27.6377 11.8017C31.7467 11.5691 34.9664 12.4701 38.1582 13.5449C38.5336 13.6715 38.6779 13.5449 38.2642 13.3122C35.4037 11.6796 32.3753 11.0318 29.0967 10.9832C28.2266 10.9699 27.4316 11.1304 26.585 11.1599C25.5383 11.1952 24.39 11.0597 23.0223 11.1216C20.2545 11.2482 16.8257 12.5644 15.2195 13.536C14.7425 13.8305 14.8617 13.9041 15.3387 13.7583H15.3417ZM43.8042 12.4201C43.5975 12.9272 43.4973 13.4714 43.5097 14.0189C44.0437 13.857 44.5522 13.6206 45.0202 13.3167C47.1652 11.8592 44.7743 9.87755 43.7968 12.4216L43.8042 12.4201ZM10.0314 12.7484C10.2381 13.256 10.3383 13.8007 10.3258 14.3487C9.79031 14.1864 9.28033 13.9495 8.81091 13.645C6.66588 12.1875 9.05824 10.2059 10.0343 12.7484H10.0314ZM35.1019 17.7539C37.3102 20.3406 39.4817 20.5041 42.1921 18.7079C42.3496 18.6049 42.6087 18.7079 42.4527 18.9067C41.9383 19.5954 41.2259 20.1106 40.4107 20.3833C39.7037 20.636 38.9467 20.7168 38.2024 20.6189C37.6156 21.3388 36.9279 21.9701 36.1604 22.493C36.0058 22.3311 35.8527 22.2089 35.6996 22.0514C36.3856 21.4772 37.4559 20.8 37.347 20.4039C36.8603 20.2173 36.414 19.9389 36.0323 19.5839C35.5258 19.1061 35.1159 18.5353 34.8251 17.9026C34.697 17.6376 34.8545 17.461 35.096 17.7554L35.1019 17.7539ZM16.0366 16.3553C15.8054 17.5331 14.7263 18.8787 13.5235 19.3469C12.3928 19.7886 10.791 19.8622 9.13921 19.1393C10.1138 20.3392 11.642 20.5997 13.0686 20.217L15.8319 22.4341L16.5474 22.0057C15.6479 21.3506 14.1786 20.4393 14.0299 19.8416C15.009 19.3278 16.5798 17.5832 16.0366 16.3553ZM43.3139 14.5695C44.6492 14.1102 45.4884 13.6965 46.0095 13.2239C47.8101 11.5956 45.1719 9.271 43.8218 11.0951C43.1431 12.0123 43.1387 13.1901 43.121 14.3075C43.121 14.5239 43.1873 14.6122 43.3139 14.5695ZM10.5069 14.8978C9.1716 14.4385 8.33244 14.0248 7.81127 13.5537C6.01221 11.9239 8.64896 9.60078 10.0005 11.4249C10.6777 12.3406 10.6821 13.5184 10.6998 14.6372C10.6998 14.8537 10.6335 14.942 10.5069 14.8978Z" fill="#543864"/>
<path fill-rule="evenodd" clip-rule="evenodd" d="M33.1555 12.1683C33.3719 12.7572 33.2748 13.3976 32.8611 13.751C32.3178 14.2177 31.4301 14.0189 30.878 13.3093C30.7118 13.1034 30.5914 12.8643 30.5249 12.6082C30.4584 12.352 30.4472 12.0846 30.4923 11.8238C31.386 11.8862 32.2753 12.0012 33.1555 12.1683ZM22.1463 11.896C22.2599 12.1757 22.3053 12.4785 22.2788 12.7793C22.2022 13.7083 21.497 14.3988 20.7049 14.3384C19.9129 14.278 19.3343 13.4551 19.4123 12.532V12.5202C20.3116 12.2621 21.2242 12.0532 22.1463 11.8945V11.896ZM15.5021 4.64086L21.3998 0.165306L22.8721 2.69311L16.6078 6.64308L15.5021 4.64086ZM29.5368 2.93014L30.8 0.269834L37.0937 4.00928L36.2472 6.08953L29.5368 2.93014ZM48.7729 34.2561C44.8332 31.8004 40.1618 29.6848 34.4481 28.0006C33.7562 27.7974 33.6988 28.2759 34.3421 28.4702C37.74 29.492 42.4011 31.3234 48.6521 34.4283C49.0379 34.6197 49.1615 34.499 48.7729 34.2561ZM50.1965 30.2546C45.8903 28.5188 40.9215 27.2454 35.0046 26.574C34.2877 26.4931 34.3142 26.9745 34.9811 27.054C38.5041 27.4721 43.4125 28.4673 50.1067 30.4401C50.5204 30.5623 50.622 30.4209 50.1965 30.2502V30.2546ZM2.34045 34.6035C6.20503 32.0316 10.8101 29.7776 16.4738 27.9241C17.1598 27.6988 17.232 28.1773 16.5945 28.3893C13.229 29.5126 8.62536 31.4809 2.47 34.7728C2.09017 34.976 1.96209 34.8582 2.34339 34.6035H2.34045ZM0.797557 30.6462C5.05081 28.7824 9.97686 27.3617 15.8731 26.5166C16.5871 26.415 16.5754 26.8979 15.9099 26.9966C12.3972 27.5192 7.52561 28.6616 0.893252 30.8361C0.483974 30.9701 0.377974 30.8361 0.797557 30.6477V30.6462Z" fill="#543864"/>
<path fill-rule="evenodd" clip-rule="evenodd" d="M32.2339 12.0123C32.2396 12.0483 32.243 12.0847 32.2442 12.1212C32.2589 12.5717 31.9733 12.928 31.6082 12.9192C31.2431 12.9103 30.9325 12.5364 30.9178 12.0874C30.9147 12.0098 30.9216 11.9321 30.9384 11.8562C31.38 11.896 31.8099 11.949 32.2339 12.0123ZM21.1599 12.0844C21.2361 12.2365 21.2687 12.4067 21.2541 12.5761C21.2158 13.0178 20.8757 13.3608 20.4944 13.3284C20.1131 13.2961 19.8334 12.9044 19.8717 12.4569C19.8717 12.4363 19.8717 12.4157 19.8717 12.3951C20.3045 12.2802 20.7329 12.1757 21.1525 12.0844H21.1599Z" fill="white"/>
<ellipse cx="16.0616" cy="26.7603" rx="1.81507" ry="2.5411" transform="rotate(-10.8862 16.0616 26.7603)" fill="white"/>
<ellipse cx="34.6904" cy="27.1668" rx="1.86741" ry="2.76376" transform="rotate(30.7986 34.6904 27.1668)" fill="white"/>
</svg>
