<svg width="53" height="53" viewBox="0 0 53 53" fill="none" xmlns="http://www.w3.org/2000/svg">
<path fill-rule="evenodd" clip-rule="evenodd" d="M41.9584 18.9298C42.057 17.2441 41.9378 15.3288 43.4821 14.2187C44.6688 13.3634 46.2013 13.4944 48.046 14.3277C49.6934 15.0638 50.8712 16.2018 50.9905 18.2806C51.0906 20.1297 49.1355 21.9788 46.2396 23.8279C46.6032 24.433 47.0376 24.9983 47.3276 25.6417C47.7796 26.6384 47.8517 27.5821 47.0331 28.3962C45.4991 29.9318 42.5885 31.4422 39.3776 32.8571C39.1141 34.2586 38.7033 35.6543 37.2753 36.9542C36.0666 38.0599 35.5704 38.241 34.0849 37.7154C33.4431 38.8637 32.785 40.4611 32.2712 41.8126C31.4114 44.071 30.0408 45.82 27.376 45.8376C23.8427 45.8627 22.3189 44.4405 20.8497 41.4136C20.3064 40.2947 19.8191 39.1081 19.3627 37.8965C18.6266 38.1983 18.076 38.5987 17.493 38.4854C15.744 38.1394 14.5486 35.8354 13.9243 33.0381C11.529 32.2049 9.28242 31.3083 7.83228 30.3189C5.05567 28.4139 6.33061 25.4312 7.98539 23.1728C6.60739 22.5441 5.53267 21.6873 5.12192 20.4889C4.26803 18.0023 6.64567 15.1889 8.7112 14.1804C10.3513 13.3751 12.6435 13.8286 13.6063 15.4495C14.1717 16.4006 14.0053 18.1672 13.9759 19.264C15.1286 19.1345 16.1989 18.9239 17.3502 18.7944C17.6196 17.3708 18.0186 16.1547 18.5707 15.1874C20.224 12.2857 24.1151 11.6026 25.761 14.9622C26.1497 15.7543 26.3911 16.7686 26.4662 18.0303H28.4743C28.6775 16.8834 28.9484 15.8087 29.3871 14.9166C30.9683 11.7042 34.6017 11.897 36.2653 14.8915C36.7953 15.8455 37.1192 17.0248 37.3106 18.3513L41.9584 18.9298Z" fill="#543864"/>
<path fill-rule="evenodd" clip-rule="evenodd" d="M21.5445 26.6855C24.9689 26.6075 28.464 26.553 31.8663 26.5913C30.479 24.9142 28.9404 23.3682 27.27 21.9729C25.6344 23.0918 23.5629 24.9291 21.5445 26.684V26.6855ZM37.2472 19.7499C37.0249 21.3457 36.5892 22.6663 35.8059 23.5394C34.319 25.1971 32.0827 24.9571 30.6149 23.4908C29.6334 22.5093 28.9768 21.0336 28.645 19.0638L26.4367 19.0947C26.4573 20.2166 26.1457 21.3389 25.5019 22.4617L27.404 21.0277C29.3252 22.7727 31.1463 24.6247 32.8585 26.5751C36.0165 27.4275 38.9477 30.6281 39.1243 31.9678C44.8454 29.1103 47.6632 27.4378 44.7968 23.4893C46.5635 22.4234 49.2282 20.3976 49.4844 18.5971C49.7317 16.8599 47.1509 15.5334 45.7552 15.3141C44.6201 15.1359 43.9885 15.1757 43.5469 16.2842C43.2039 17.1587 42.9212 18.5323 42.6724 20.1856C41.2605 19.9928 39.8531 19.822 38.4353 19.6085C38.1482 19.5644 37.8553 19.6277 37.5652 19.638L37.2487 19.7499H37.2472ZM36.3404 18.9917C36.3145 17.922 36.0371 16.8734 35.5306 15.9309C34.2321 13.5356 31.613 13.1337 30.1732 15.5231C29.7639 16.2018 29.5269 17.038 29.4283 17.9994C29.6447 17.9847 29.8699 17.9758 30.0893 17.9802C32.2755 18.0126 34.3587 18.3115 36.3404 18.9917ZM18.4455 19.4584C18.5131 18.3432 18.8103 17.2541 19.3185 16.2592C20.6097 13.8507 23.3863 13.119 24.8982 15.6114C25.3474 16.3717 25.6004 17.2318 25.6344 18.1142C25.125 18.098 24.5861 18.0892 24.0149 18.1142C22.21 18.1967 20.1238 18.7856 18.4455 19.4539V19.4584ZM22.7959 24.6229C21.362 26.1702 20.168 27.1919 18.4455 28.1754C15.3995 29.917 14.2143 31.0212 14.0112 32.2608C11.5084 31.1743 9.44727 30.1261 8.58307 29.1971C6.98718 27.482 8.00449 25.2839 9.76085 22.9461C8.36813 22.3925 7.48185 21.6932 6.89443 20.9085C6.2069 19.9898 6.21132 19.0653 6.74721 18.0215C7.40235 16.7495 8.95554 15.4304 10.4278 15.3008C12.8555 15.0873 12.9305 18.8047 12.9129 20.3785L17.4547 19.7984C18.4352 24.2284 20.3991 25.1721 22.8003 24.6229H22.7959Z" fill="white"/>
<path fill-rule="evenodd" clip-rule="evenodd" d="M25.6461 18.7311C25.7008 19.6781 25.5107 20.6232 25.094 21.4753C24.3579 22.9475 22.6545 24.5552 20.8687 23.8765C19.554 23.3759 18.6221 21.7786 18.5132 20.0841C20.4447 19.4952 22.3616 18.9416 24.0458 18.7767C24.5793 18.7294 25.1152 18.7142 25.6505 18.7311H25.6461Z" fill="white"/>
<path fill-rule="evenodd" clip-rule="evenodd" d="M36.3286 19.6718C36.3286 21.0381 36.0342 22.1525 35.3437 22.9107C33.8052 24.6023 31.5557 23.903 30.4162 22.1378C29.8788 21.3045 29.5328 20.193 29.4386 18.7753C31.767 18.7357 34.0886 19.0393 36.3286 19.6763V19.6718Z" fill="white"/>
<path fill-rule="evenodd" clip-rule="evenodd" d="M20.4448 37.2752C22.5236 36.7422 24.6009 36.1946 26.6797 35.538C28.7408 36.2152 30.7518 36.7378 32.7526 37.2296C31.2376 42.4633 29.8155 44.4758 26.7724 44.3448C22.6502 44.1667 21.549 40.1917 20.4418 37.2781L20.4448 37.2752ZM19.7087 28.1165C20.4256 29.0499 24.1842 31.9693 26.5059 32.9366C26.5236 33.5873 26.4809 34.2881 26.5059 34.9402C23.6557 35.6263 20.8658 36.3492 18.288 37.019C17.3634 37.1221 16.3741 36.2181 15.741 35.058C15.186 34.0275 14.8371 32.9366 15.2051 31.9826C15.6939 30.7209 18.1599 29.0528 19.7087 28.1165ZM27.3083 32.9851C27.3067 33.6357 27.2723 34.2858 27.2052 34.9329C30.9668 35.8236 33.9642 37.1412 35.5586 36.6996C37.05 36.2873 38.0614 33.6197 37.9628 32.2137C37.9039 31.3304 37.4269 30.6311 36.6584 29.8699C35.6273 28.865 34.4548 28.0163 33.178 27.3509C31.4114 29.6491 29.4253 31.3731 27.3083 32.9866V32.9851ZM44.7909 19.4201C44.5842 19.9272 44.484 20.4714 44.4965 21.0189C45.0351 20.8582 45.5481 20.6217 46.0202 20.3167C48.1653 18.8592 45.7744 16.8776 44.7968 19.4216L44.7909 19.4201ZM11.0181 19.7484C11.2248 20.256 11.325 20.8007 11.3126 21.3487C10.7771 21.1864 10.2671 20.9495 9.79768 20.645C7.65265 19.1875 10.045 17.2059 11.0211 19.7484H11.0181Z" fill="white"/>
<path fill-rule="evenodd" clip-rule="evenodd" d="M16.3417 20.7583C18.9755 19.9545 21.73 19.0034 24.0488 18.7767C25.6682 18.6192 27.2376 18.8812 28.6377 18.8017C32.7467 18.5691 35.9664 19.4701 39.1582 20.5449C39.5336 20.6715 39.6779 20.5449 39.2642 20.3122C36.4037 18.6796 33.3753 18.0318 30.0967 17.9832C29.2266 17.9699 28.4316 18.1304 27.585 18.1599C26.5383 18.1952 25.39 18.0597 24.0223 18.1216C21.2545 18.2482 17.8257 19.5644 16.2195 20.536C15.7425 20.8305 15.8617 20.9041 16.3387 20.7583H16.3417ZM44.8042 19.4201C44.5975 19.9272 44.4973 20.4714 44.5097 21.0189C45.0437 20.857 45.5522 20.6206 46.0202 20.3167C48.1652 18.8592 45.7743 16.8776 44.7968 19.4216L44.8042 19.4201ZM11.0314 19.7484C11.2381 20.256 11.3383 20.8007 11.3258 21.3487C10.7903 21.1864 10.2803 20.9495 9.81091 20.645C7.66588 19.1875 10.0582 17.2059 11.0343 19.7484H11.0314ZM36.1019 24.7539C38.3102 27.3406 40.4817 27.5041 43.1921 25.7079C43.3496 25.6049 43.6087 25.7079 43.4527 25.9067C42.9383 26.5954 42.2259 27.1106 41.4107 27.3833C40.7037 27.636 39.9467 27.7168 39.2024 27.6189C38.6156 28.3388 37.9279 28.9701 37.1604 29.493C37.0058 29.3311 36.8527 29.2089 36.6996 29.0514C37.3856 28.4772 38.4559 27.8 38.347 27.4039C37.8603 27.2173 37.414 26.9389 37.0323 26.5839C36.5258 26.1061 36.1159 25.5353 35.8251 24.9026C35.697 24.6376 35.8545 24.461 36.096 24.7554L36.1019 24.7539ZM17.0366 23.3553C16.8054 24.5331 15.7263 25.8787 14.5235 26.3469C13.3928 26.7886 11.791 26.8622 10.1392 26.1393C11.1138 27.3392 12.642 27.5997 14.0686 27.217L16.8319 29.4341L17.5474 29.0057C16.6479 28.3506 15.1786 27.4393 15.0299 26.8416C16.009 26.3278 17.5798 24.5832 17.0366 23.3553ZM44.3139 21.5695C45.6492 21.1102 46.4884 20.6965 47.0095 20.2239C48.8101 18.5956 46.1719 16.271 44.8218 18.0951C44.1431 19.0123 44.1387 20.1901 44.121 21.3075C44.121 21.5239 44.1873 21.6122 44.3139 21.5695ZM11.5069 21.8978C10.1716 21.4385 9.33244 21.0248 8.81127 20.5537C7.01221 18.9239 9.64896 16.6008 11.0005 18.4249C11.6777 19.3406 11.6821 20.5184 11.6998 21.6372C11.6998 21.8537 11.6335 21.942 11.5069 21.8978Z" fill="#543864"/>
<path fill-rule="evenodd" clip-rule="evenodd" d="M34.1555 19.1683C34.3719 19.7572 34.2748 20.3976 33.8611 20.751C33.3178 21.2177 32.4301 21.0189 31.878 20.3093C31.7118 20.1034 31.5914 19.8643 31.5249 19.6082C31.4584 19.352 31.4472 19.0846 31.4923 18.8238C32.386 18.8862 33.2753 19.0012 34.1555 19.1683ZM23.1463 18.896C23.2599 19.1757 23.3053 19.4785 23.2788 19.7793C23.2022 20.7083 22.497 21.3988 21.7049 21.3384C20.9129 21.278 20.3343 20.4551 20.4123 19.532V19.5202C21.3116 19.2621 22.2242 19.0532 23.1463 18.8945V18.896ZM16.5021 11.6409L22.3998 7.16531L23.8721 9.69311L17.6078 13.6431L16.5021 11.6409ZM30.5368 9.93014L31.8 7.26983L38.0937 11.0093L37.2472 13.0895L30.5368 9.93014ZM49.7729 41.2561C45.8332 38.8004 41.1618 36.6848 35.4481 35.0006C34.7562 34.7974 34.6988 35.2759 35.3421 35.4702C38.74 36.492 43.4011 38.3234 49.6521 41.4283C50.0379 41.6197 50.1615 41.499 49.7729 41.2561ZM51.1965 37.2546C46.8903 35.5188 41.9215 34.2454 36.0046 33.574C35.2877 33.4931 35.3142 33.9745 35.9811 34.054C39.5041 34.4721 44.4125 35.4673 51.1067 37.4401C51.5204 37.5623 51.622 37.4209 51.1965 37.2502V37.2546ZM3.34045 41.6035C7.20503 39.0316 11.8101 36.7776 17.4738 34.9241C18.1598 34.6988 18.232 35.1773 17.5945 35.3893C14.229 36.5126 9.62536 38.4809 3.47 41.7728C3.09017 41.976 2.96209 41.8582 3.34339 41.6035H3.34045ZM1.79756 37.6462C6.05081 35.7824 10.9769 34.3617 16.8731 33.5166C17.5871 33.415 17.5754 33.8979 16.9099 33.9966C13.3972 34.5192 8.52561 35.6616 1.89325 37.8361C1.48397 37.9701 1.37797 37.8361 1.79756 37.6477V37.6462Z" fill="#543864"/>
<path fill-rule="evenodd" clip-rule="evenodd" d="M33.2339 19.0123C33.2396 19.0483 33.243 19.0847 33.2442 19.1212C33.2589 19.5717 32.9733 19.928 32.6082 19.9192C32.2431 19.9103 31.9325 19.5364 31.9178 19.0874C31.9147 19.0098 31.9216 18.9321 31.9384 18.8562C32.38 18.896 32.8099 18.949 33.2339 19.0123ZM22.1599 19.0844C22.2361 19.2365 22.2687 19.4067 22.2541 19.5761C22.2158 20.0178 21.8757 20.3608 21.4944 20.3284C21.1131 20.2961 20.8334 19.9044 20.8717 19.4569C20.8717 19.4363 20.8717 19.4157 20.8717 19.3951C21.3045 19.2802 21.7329 19.1757 22.1525 19.0844H22.1599Z" fill="white"/>
<ellipse cx="17.0616" cy="33.7603" rx="1.81507" ry="2.5411" transform="rotate(-10.8862 17.0616 33.7603)" fill="white"/>
<ellipse cx="35.6904" cy="34.1668" rx="1.86741" ry="2.76376" transform="rotate(30.7986 35.6904 34.1668)" fill="white"/>
</svg>
