<svg width="24" height="24" viewBox="0 0 24 24" fill="none" xmlns="http://www.w3.org/2000/svg">
<path d="M9.375 15.55L12.3 13.775L15.225 15.55L14.45 12.225L17.05 9.975L13.625 9.7L12.3 6.55L10.975 9.7L7.55 9.975L10.15 12.225L9.375 15.55ZM12.3 22.6L8.95 19.3H4.3V14.65L1 11.3L4.3 7.95V3.3H8.95L12.3 0L15.65 3.3H20.3V7.95L23.6 11.3L20.3 14.65V19.3H15.65L12.3 22.6ZM12.3 19.8L14.8 17.3H18.3V13.8L20.8 11.3L18.3 8.8V5.3H14.8L12.3 2.8L9.8 5.3H6.3V8.8L3.8 11.3L6.3 13.8V17.3H9.8L12.3 19.8Z" fill="white"/>
</svg>
