<svg width="115" height="115" viewBox="0 0 115 115" fill="none" xmlns="http://www.w3.org/2000/svg">
<path d="M57.5 115C49.5458 115 42.0708 113.491 35.075 110.472C28.0792 107.453 21.9937 103.356 16.8188 98.1813C11.6437 93.0063 7.54688 86.9208 4.52813 79.925C1.50937 72.9292 0 65.4542 0 57.5C0 49.5458 1.50937 42.0708 4.52813 35.075C7.54688 28.0792 11.6437 21.9937 16.8188 16.8188C21.9937 11.6437 28.0792 7.54688 35.075 4.52813C42.0708 1.50937 49.5458 0 57.5 0C65.4542 0 72.9292 1.50937 79.925 4.52813C86.9208 7.54688 93.0063 11.6437 98.1813 16.8188C103.356 21.9937 107.453 28.0792 110.472 35.075C113.491 42.0708 115 49.5458 115 57.5C115 65.4542 113.491 72.9292 110.472 79.925C107.453 86.9208 103.356 93.0063 98.1813 98.1813C93.0063 103.356 86.9208 107.453 79.925 110.472C72.9292 113.491 65.4542 115 57.5 115ZM24.8688 24.8688L57.5 57.5V11.5C51.3667 11.5 45.4729 12.65 39.8188 14.95C34.1646 17.25 29.1813 20.5563 24.8688 24.8688Z" fill="white"/>
</svg>
