<svg width="104" height="104" viewBox="0 0 104 104" fill="none" xmlns="http://www.w3.org/2000/svg">
<path d="M23.1111 104V92.4445H46.2222V74.5333C41.5037 73.4741 37.2907 71.4759 33.5833 68.5389C29.8759 65.6019 27.1556 61.9185 25.4222 57.4889C18.2 56.6222 12.1574 53.4685 7.29444 48.0278C2.43148 42.587 0 36.2074 0 28.8889V23.1111C0 19.9333 1.13148 17.213 3.39444 14.95C5.65741 12.687 8.37778 11.5556 11.5556 11.5556H23.1111V0H80.8889V11.5556H92.4445C95.6222 11.5556 98.3426 12.687 100.606 14.95C102.869 17.213 104 19.9333 104 23.1111V28.8889C104 36.2074 101.569 42.587 96.7056 48.0278C91.8426 53.4685 85.8 56.6222 78.5778 57.4889C76.8444 61.9185 74.1241 65.6019 70.4167 68.5389C66.7093 71.4759 62.4963 73.4741 57.7778 74.5333V92.4445H80.8889V104H23.1111ZM23.1111 45.0667V23.1111H11.5556V28.8889C11.5556 32.5481 12.6148 35.8463 14.7333 38.7833C16.8519 41.7204 19.6444 43.8148 23.1111 45.0667ZM52 63.5556C56.8148 63.5556 60.9074 61.8704 64.2778 58.5C67.6481 55.1296 69.3333 51.037 69.3333 46.2222V11.5556H34.6667V46.2222C34.6667 51.037 36.3519 55.1296 39.7222 58.5C43.0926 61.8704 47.1852 63.5556 52 63.5556ZM80.8889 45.0667C84.3556 43.8148 87.1482 41.7204 89.2667 38.7833C91.3852 35.8463 92.4445 32.5481 92.4445 28.8889V23.1111H80.8889V45.0667Z" fill="white"/>
</svg>
