<svg width="34" height="34" viewBox="0 0 34 34" fill="none" xmlns="http://www.w3.org/2000/svg">
<path d="M7.08333 25.2875C8.35833 24.0361 9.83993 23.0503 11.5281 22.3302C13.2163 21.6101 15.0403 21.25 17 21.25C18.9597 21.25 20.7837 21.6101 22.4719 22.3302C24.1601 23.0503 25.6417 24.0361 26.9167 25.2875V7.08333H7.08333V25.2875ZM17 18.4167C18.3694 18.4167 19.5382 17.9326 20.5063 16.9646C21.4743 15.9965 21.9583 14.8278 21.9583 13.4583C21.9583 12.0889 21.4743 10.9201 20.5063 9.95208C19.5382 8.98403 18.3694 8.5 17 8.5C15.6306 8.5 14.4618 8.98403 13.4937 9.95208C12.5257 10.9201 12.0417 12.0889 12.0417 13.4583C12.0417 14.8278 12.5257 15.9965 13.4937 16.9646C14.4618 17.9326 15.6306 18.4167 17 18.4167ZM7.08333 29.75C6.30417 29.75 5.63715 29.4726 5.08229 28.9177C4.52743 28.3628 4.25 27.6958 4.25 26.9167V7.08333C4.25 6.30417 4.52743 5.63715 5.08229 5.08229C5.63715 4.52743 6.30417 4.25 7.08333 4.25H26.9167C27.6958 4.25 28.3628 4.52743 28.9177 5.08229C29.4726 5.63715 29.75 6.30417 29.75 7.08333V26.9167C29.75 27.6958 29.4726 28.3628 28.9177 28.9177C28.3628 29.4726 27.6958 29.75 26.9167 29.75H7.08333ZM9.91667 26.9167H24.0833V26.5625C23.0917 25.7361 21.9937 25.1163 20.7896 24.7031C19.5854 24.2899 18.3222 24.0833 17 24.0833C15.6778 24.0833 14.4146 24.2899 13.2104 24.7031C12.0062 25.1163 10.9083 25.7361 9.91667 26.5625V26.9167ZM17 15.5833C16.4097 15.5833 15.908 15.3767 15.4948 14.9635C15.0816 14.5503 14.875 14.0486 14.875 13.4583C14.875 12.8681 15.0816 12.3663 15.4948 11.9531C15.908 11.5399 16.4097 11.3333 17 11.3333C17.5903 11.3333 18.092 11.5399 18.5052 11.9531C18.9184 12.3663 19.125 12.8681 19.125 13.4583C19.125 14.0486 18.9184 14.5503 18.5052 14.9635C18.092 15.3767 17.5903 15.5833 17 15.5833Z" fill="white"/>
</svg>
