<svg width="34" height="34" viewBox="0 0 34 34" fill="none" xmlns="http://www.w3.org/2000/svg">
<path d="M1.41669 28.3334V24.3667C1.41669 23.564 1.62328 22.8261 2.03648 22.1532C2.44967 21.4803 2.99863 20.9667 3.68335 20.6126C5.14724 19.8806 6.63474 19.3317 8.14585 18.9657C9.65696 18.5997 11.1917 18.4167 12.75 18.4167C14.3084 18.4167 15.8431 18.5997 17.3542 18.9657C18.8653 19.3317 20.3528 19.8806 21.8167 20.6126C22.5014 20.9667 23.0504 21.4803 23.4636 22.1532C23.8768 22.8261 24.0834 23.564 24.0834 24.3667V28.3334H1.41669ZM26.9167 28.3334V24.0834C26.9167 23.0445 26.6275 22.047 26.049 21.0907C25.4705 20.1345 24.65 19.314 23.5875 18.6292C24.7917 18.7709 25.925 19.0129 26.9875 19.3553C28.05 19.6977 29.0417 20.1167 29.9625 20.6126C30.8125 21.0848 31.4618 21.6102 31.9104 22.1886C32.359 22.7671 32.5834 23.3987 32.5834 24.0834V28.3334H26.9167ZM12.75 17.0001C11.1917 17.0001 9.85766 16.4452 8.74794 15.3355C7.63821 14.2258 7.08335 12.8917 7.08335 11.3334C7.08335 9.77508 7.63821 8.44105 8.74794 7.33133C9.85766 6.22161 11.1917 5.66675 12.75 5.66675C14.3084 5.66675 15.6424 6.22161 16.7521 7.33133C17.8618 8.44105 18.4167 9.77508 18.4167 11.3334C18.4167 12.8917 17.8618 14.2258 16.7521 15.3355C15.6424 16.4452 14.3084 17.0001 12.75 17.0001ZM26.9167 11.3334C26.9167 12.8917 26.3618 14.2258 25.2521 15.3355C24.1424 16.4452 22.8084 17.0001 21.25 17.0001C20.9903 17.0001 20.6597 16.9706 20.2584 16.9115C19.857 16.8525 19.5264 16.7876 19.2667 16.7167C19.9042 15.9612 20.3941 15.123 20.7365 14.2022C21.0788 13.2813 21.25 12.3251 21.25 11.3334C21.25 10.3417 21.0788 9.3855 20.7365 8.46466C20.3941 7.54383 19.9042 6.70564 19.2667 5.95008C19.5972 5.83203 19.9278 5.75529 20.2584 5.71987C20.5889 5.68446 20.9195 5.66675 21.25 5.66675C22.8084 5.66675 24.1424 6.22161 25.2521 7.33133C26.3618 8.44105 26.9167 9.77508 26.9167 11.3334ZM4.25002 25.5001H21.25V24.3667C21.25 24.107 21.1851 23.8709 21.0552 23.6584C20.9254 23.4459 20.7542 23.2806 20.5417 23.1626C19.2667 22.5251 17.9799 22.047 16.6813 21.7282C15.3827 21.4095 14.0722 21.2501 12.75 21.2501C11.4278 21.2501 10.1174 21.4095 8.81877 21.7282C7.52016 22.047 6.23335 22.5251 4.95835 23.1626C4.74585 23.2806 4.57467 23.4459 4.44481 23.6584C4.31495 23.8709 4.25002 24.107 4.25002 24.3667V25.5001ZM12.75 14.1667C13.5292 14.1667 14.1962 13.8893 14.7511 13.3345C15.3059 12.7796 15.5834 12.1126 15.5834 11.3334C15.5834 10.5542 15.3059 9.88723 14.7511 9.33237C14.1962 8.77751 13.5292 8.50008 12.75 8.50008C11.9709 8.50008 11.3038 8.77751 10.749 9.33237C10.1941 9.88723 9.91669 10.5542 9.91669 11.3334C9.91669 12.1126 10.1941 12.7796 10.749 13.3345C11.3038 13.8893 11.9709 14.1667 12.75 14.1667Z" fill="white"/>
</svg>
